<?xml version="1.0" encoding="utf-8"?>
<!-- Generator: Adobe Illustrator 18.0.0, SVG Export Plug-In . SVG Version: 6.00 Build 0)  -->
<!DOCTYPE svg PUBLIC "-//W3C//DTD SVG 1.1//EN" "http://www.w3.org/Graphics/SVG/1.1/DTD/svg11.dtd">
<svg version="1.1" id="Layer_2" xmlns="http://www.w3.org/2000/svg" xmlns:xlink="http://www.w3.org/1999/xlink" x="0px" y="0px"
	 width="153.1px" height="143px" viewBox="0 0 153.1 143" enable-background="new 0 0 153.1 143" xml:space="preserve">
<path fill="#FFFFFF" d="M143.4,74.7c30.4,24.4-32.4,67.5-71.4,67.5S1.4,110.6,1.4,71.6S33,2.1,72,1C113.9-0.1,98.1,38.3,143.4,74.7z
	"/>
<g enable-background="new    ">
	<path fill="#FE4C49" d="M17.7,61.9h2.9v8.8h0.1c1.3-1,2.8-1.4,4.4-1.4c2.2,0,4.1,1,5.8,2.8c1,1.4,1.5,2.9,1.5,4.4v7.5h-2.9v-7.4
		c0-1.5-0.7-2.7-2.1-3.7c-0.7-0.4-1.5-0.7-2.4-0.7c-1.4,0-2.6,0.6-3.5,1.9c-0.5,0.7-0.9,1.7-0.9,2.8v7.1h-2.9L17.7,61.9L17.7,61.9z"
		/>
	<path fill="#FE4C49" d="M40.9,69.2c1.5,0,3,0.5,4.4,1.4h0.1v-1.4h2.9v14.6h-2.9v-1.4c-1.3,1-2.7,1.4-4.2,1.4h-0.4
		c-2.2,0-4.1-1-5.7-2.9c-1-1.4-1.5-2.9-1.5-4.4c0-2.4,1.1-4.4,3.2-6C38.1,69.7,39.5,69.2,40.9,69.2z M36.6,76.5
		c0,1.7,0.8,2.9,2.3,3.9c0.6,0.3,1.3,0.5,2,0.5h0.2c1.3,0,2.5-0.6,3.5-1.9c0.5-0.8,0.8-1.6,0.8-2.4v-0.2c0-1.5-0.7-2.8-2.2-3.7
		c-0.7-0.4-1.5-0.6-2.2-0.6c-1.4,0-2.6,0.6-3.6,1.9C36.8,74.8,36.6,75.7,36.6,76.5z"/>
	<path fill="#FE4C49" d="M49.5,69.2h2.9v1.4h0.1c1.3-1,2.8-1.4,4.3-1.4c2.3,0,4.2,1,5.8,2.8c1,1.4,1.5,2.8,1.5,4.3v0.4
		c0,1.9-0.8,3.7-2.5,5.2c-1.5,1.2-3,1.8-4.6,1.8h-0.6c-1.4,0-2.7-0.5-4.1-1.4h-0.1v10.2h-2.9C49.5,92.6,49.5,69.2,49.5,69.2z
		 M52.4,76.5c0,1.7,0.7,2.9,2.3,3.9c0.7,0.3,1.3,0.5,1.9,0.5H57c1.2,0,2.3-0.6,3.3-1.7c0.6-0.9,0.9-1.7,0.9-2.6v-0.1
		c0-1.4-0.6-2.6-1.9-3.6c-0.8-0.5-1.7-0.8-2.5-0.8c-1.4,0-2.6,0.6-3.6,1.9C52.7,74.7,52.4,75.6,52.4,76.5z"/>
	<path fill="#FE4C49" d="M65.4,69.2h2.9v1.4h0.1c1.3-1,2.8-1.4,4.3-1.4c2.3,0,4.2,1,5.8,2.8c1,1.4,1.5,2.8,1.5,4.3v0.4
		c0,1.9-0.8,3.7-2.5,5.2c-1.5,1.2-3,1.8-4.6,1.8h-0.6c-1.4,0-2.7-0.5-4.1-1.4h-0.1v10.2h-2.9L65.4,69.2L65.4,69.2z M68.3,76.5
		c0,1.7,0.7,2.9,2.3,3.9c0.7,0.3,1.3,0.5,1.9,0.5h0.4c1.2,0,2.3-0.6,3.3-1.7c0.6-0.9,0.9-1.7,0.9-2.6v-0.1c0-1.4-0.6-2.6-1.9-3.6
		c-0.8-0.5-1.7-0.8-2.5-0.8c-1.4,0-2.6,0.6-3.6,1.9C68.6,74.7,68.3,75.6,68.3,76.5z"/>
	<path fill="#FE4C49" d="M81.3,69.2h2.9v6c0,2.2,0.6,3.8,1.9,5c0.7,0.5,1.5,0.7,2.5,0.7c2,0,3.3-1,4-3.1c0.3-0.8,0.4-1.5,0.4-2.1
		v-6.5h2.9v16.2c0,1.6-0.5,3.2-1.7,4.8c-1.4,1.6-3.3,2.5-5.4,2.5v-2.9c1.9,0,3.2-0.9,3.9-2.8c0.2-0.7,0.3-1.3,0.3-1.7v-2.8
		c-1.2,1-2.7,1.4-4.4,1.4c-3.2,0-5.3-1.5-6.6-4.6c-0.5-1.2-0.7-2.6-0.7-4.1L81.3,69.2L81.3,69.2L81.3,69.2z"/>
</g>
<g enable-background="new    ">
	<path fill="#FFC053" d="M27.7,94.3h2.9v0.7h0.1c0.9-0.5,1.9-0.7,2.9-0.7c1.7,0,3.2,0.6,4.4,2c1.2-1.3,2.7-2,4.4-2
		c1.6,0,3,0.6,4.3,1.9c1,1.2,1.5,2.5,1.5,4.1v8.7h-2.9v-8.7c0-1.3-0.7-2.3-2-2.9c-0.4-0.1-0.7-0.1-0.9-0.1c-1.2,0-2.1,0.6-2.7,1.8
		c-0.2,0.4-0.2,0.9-0.2,1.5v8.4h-2.9v-8.9c0-1.1-0.6-1.9-1.7-2.6c-0.5-0.2-0.9-0.3-1.3-0.3c-1.1,0-2,0.6-2.6,1.7
		c-0.2,0.5-0.3,0.9-0.3,1.2v8.9h-2.9L27.7,94.3L27.7,94.3L27.7,94.3z"/>
	<path fill="#FFC053" d="M56.9,94.3c1.9,0,3.6,0.7,5.1,2.1c1.4,1.5,2.1,3.3,2.1,5.2c0,2-0.8,3.8-2.3,5.4c-1.4,1.3-3.1,1.9-4.9,1.9
		h-0.1c-2.2,0-4.1-0.9-5.6-2.6c-1.2-1.4-1.7-3-1.7-4.7c0-1.5,0.4-2.9,1.3-4.2C52.3,95.4,54.3,94.3,56.9,94.3z M52.4,101.4v0.2
		l-0.1,0.1h0.1v0.2c0,1.2,0.6,2.3,1.7,3.3c0.9,0.6,1.8,0.9,2.7,0.9c1.4,0,2.6-0.6,3.6-1.9c0.5-0.8,0.9-1.7,0.9-2.6
		c0-1.5-0.7-2.8-2.1-3.8c-0.7-0.4-1.5-0.6-2.4-0.6c-1.4,0-2.7,0.7-3.6,2C52.6,100.1,52.4,100.7,52.4,101.4z"/>
	<path fill="#FFC053" d="M65.3,94.3h2.9v1.3h0.1c1.2-0.9,2.7-1.3,4.4-1.3c3.3,0,5.5,1.4,6.8,4.4c0.4,1,0.5,1.9,0.5,2.8v7.4h-2.9
		v-7.3c0-1.2-0.4-2.2-1.1-3.1c-0.8-0.9-1.9-1.3-3.3-1.3c-2,0-3.4,0.9-4.1,2.6c-0.2,0.6-0.4,1.2-0.4,1.9v7.3h-2.9L65.3,94.3
		L65.3,94.3z"/>
	<path fill="#FFC053" d="M86.1,94.3h8.5v2.9h-8.4c-0.8,0-1.3,0.1-1.5,0.4c-0.3,0.4-0.4,0.8-0.4,1.2c0,0.6,0.3,1.1,0.9,1.3l0.5,0.1
		h3.9c2.3,0,3.9,0.9,4.6,2.7c0.2,0.6,0.3,1.1,0.3,1.7c0,1.8-0.8,3.1-2.4,3.9c-0.6,0.3-1.3,0.4-1.8,0.4h-8.9v-2.9h8.8
		c0.7,0,1.1-0.3,1.4-0.9l0.1-0.6c0-1-0.6-1.5-1.8-1.5h-4.2c-1.1,0-2.1-0.4-3.1-1.3c-0.8-0.9-1.2-1.9-1.2-3.1c0-1.1,0.4-2.1,1.2-3
		C83.2,94.8,84.4,94.3,86.1,94.3z"/>
	<path fill="#FFC053" d="M98.2,86.9h2.9v7.4h2.5v2.9h-2.5V109h-2.9V97.3h-2.5v-2.9h2.5V86.9z"/>
	<path fill="#FFC053" d="M111.6,94.3c2.1,0,4,0.9,5.6,2.6c1.2,1.4,1.7,3,1.7,4.7c0,0.5-0.1,1-0.2,1.4h-11.3c0.4,1.1,1.1,1.9,2.1,2.5
		c0.6,0.3,1.3,0.5,2,0.5c1.2,0,2.2-0.4,3.1-1.3l2,2v0.1c-1.5,1.4-3.2,2.1-5.1,2.1h-0.1c-2.2,0-4.1-0.9-5.6-2.6
		c-1.2-1.4-1.7-3-1.7-4.7c0-2.2,0.9-4.1,2.6-5.6C108.2,94.9,109.8,94.3,111.6,94.3z M107.5,100.2h8.3c-0.3-1-1-1.8-2-2.4
		c-0.7-0.4-1.5-0.5-2.2-0.5c-1.5,0-2.8,0.7-3.8,2.2L107.5,100.2z"/>
	<path fill="#FFC053" d="M120.2,94.3h2.9V96h0.1c1.5-1.1,3.5-1.7,5.8-1.7v2.9c-2.8,0-4.6,1-5.5,2.9c-0.2,0.6-0.4,1.1-0.4,1.6v7.2
		h-2.9V94.3z"/>
</g>
<g>
	<path fill="#91CB1E" d="M79.5,23.5c1-1.8,1.8-4.3,1.3-7.6c-0.1-0.5-0.7-0.6-0.9-0.2c-0.9,1.4-2.1,3.8-4.5,5.4
		C76.9,21.7,78.3,22.5,79.5,23.5z"/>
	<path fill="#91CB1E" d="M64.8,21.1c-2.5-1.8-3.7-3.9-4.3-5.3c-0.2-0.5-0.9-0.5-1.1,0.1c-1,3.2-0.3,5.8,0.9,7.8
		C61.7,22.6,63.2,21.8,64.8,21.1z"/>
	<path fill="#91CB1E" d="M57.5,48.1c4.9,3.8,17.9,10.4,33.4-9.1c0.4-0.5,1.2-0.2,1.1,0.4c-0.3,3-1.4,9.3-6,16.3
		c-0.2,0.3-0.7,0.4-1,0.1l-3.5-3.3c0,0,1.7,2.6,1.3,6.3c0,0.2-0.1,0.4-0.2,0.5c-1.4,1.3-9.9,8.5-17.7,1.8c-0.2-0.1-0.2-0.3-0.2-0.5
		c-0.2-0.9-0.6-2.8,0.9-6.4l-3.4,3.3c-0.3,0.3-0.7,0.2-1-0.1c-0.9-1.2-2.9-4.3-4.9-8.6C56.3,48.3,57,47.7,57.5,48.1z"/>
	<circle fill="#91CB1E" cx="70" cy="35.1" r="12.5"/>
	<circle fill="#FAF9F7" cx="70" cy="35.1" r="7.4"/>
	<circle fill="#3A3A38" cx="69.8" cy="35.1" r="2.8"/>
	<path fill="#E2E2E2" d="M76,30.5c0.3,0.7,0.4,1.5,0.4,2.3c0,3.8-3,6.8-6.8,6.8c-3.5,0-6.4-2.6-6.8-5.9c-0.1,0.4-0.1,0.9-0.1,1.3
		c0,4.1,3.3,7.4,7.4,7.4c4.1,0,7.4-3.3,7.4-7.4C77.5,33.4,77,31.8,76,30.5z"/>
	<circle fill="#FAF9F7" cx="71.6" cy="33.5" r="1.5"/>
</g>
</svg>
